<svg width="111" height="25" viewBox="0 0 111 25" fill="none" xmlns="http://www.w3.org/2000/svg">
<g id="Full Logo" clip-path="url(#clip0_11450_26751)">
<path id="path52" d="M8.0005 10.5817V10.5746L8.00346 10.5806L8.0005 10.5817ZM17.5722 14.4302V14.4338L25.3567 12.7539C25.6452 12.6916 25.6446 12.2894 25.356 12.2279L17.6002 10.5749L17.5612 10.5614L19.7554 6.02517C19.8662 5.79613 19.6215 5.55791 19.3876 5.66714L14.756 7.83066L14.7543 7.82318H14.7632L13.0363 0.210957C12.9724 -0.0708275 12.5612 -0.070116 12.4983 0.211891L10.7971 7.83863L6.1564 5.69376C5.92209 5.58547 5.6784 5.82466 5.79018 6.05325L7.998 10.5695L0.216084 12.2489C-0.0724148 12.3111 -0.0718684 12.7133 0.216767 12.7748L7.90333 14.4131L8.01161 14.4504L5.81736 18.9867C5.70658 19.2157 5.95128 19.4539 6.18514 19.3447L10.8105 17.1841L12.528 24.7888C12.5917 25.0708 13.0032 25.0702 13.0661 24.7881L14.747 17.2526L14.7756 17.1733L19.4163 19.3181C19.6506 19.4264 19.8943 19.1872 19.7826 18.9586L17.5693 14.4313L17.5722 14.4302Z" fill="white"/>
<path id="Vector" d="M31.4468 22.3181V21.7284C32.0104 21.7284 32.3794 21.5515 32.5538 21.1977C32.7283 20.8439 32.8155 20.2739 32.8155 19.4876V5.49251C32.8155 4.70626 32.7283 4.13624 32.5538 3.78243C32.3794 3.42862 32.0104 3.25171 31.4468 3.25171V2.66203H35.2511L40.0618 17.3451L44.8524 2.66203H48.8378V3.25171C48.2742 3.25171 47.9052 3.42862 47.7307 3.78243C47.5563 4.13624 47.4691 4.70626 47.4691 5.49251V19.4876C47.4691 20.2739 47.5563 20.8439 47.7307 21.1977C47.9052 21.5515 48.2742 21.7284 48.8378 21.7284V22.3181H43.4836V21.7284C44.0472 21.7284 44.4163 21.5515 44.5907 21.1977C44.7651 20.8439 44.8524 20.2739 44.8524 19.4876V5.807L39.3573 22.613H38.9547L34.0232 7.51708V19.4876C34.0232 20.2739 34.1105 20.8439 34.2849 21.1977C34.4593 21.5515 34.8284 21.7284 35.392 21.7284V22.3181H31.4468ZM56.525 19.9987V19.3894C56.2969 19.7956 56.1224 20.1035 56.0017 20.3132C55.8809 20.5098 55.6863 20.7849 55.4179 21.1388C55.163 21.4926 54.9147 21.7612 54.6732 21.9447C54.4451 22.115 54.1498 22.2722 53.7875 22.4164C53.4387 22.5606 53.0629 22.6326 52.6603 22.6326C51.5331 22.6326 50.7146 22.3378 50.2047 21.7481C49.6948 21.1453 49.4398 20.3852 49.4398 19.468C49.4398 18.7473 49.6008 18.0462 49.9229 17.3648C50.2449 16.6702 50.6475 16.0675 51.1306 15.5564C51.6137 15.0323 52.184 14.5343 52.8415 14.0626C53.4991 13.5777 54.123 13.1846 54.7134 12.8832C55.3039 12.5687 55.9078 12.2869 56.525 12.038V11.3893C56.525 11.0748 56.5049 10.8062 56.4646 10.5834C56.4244 10.3476 56.3439 10.1117 56.2231 9.87581C56.1158 9.63994 55.9346 9.45646 55.6796 9.32544C55.4381 9.19442 55.1295 9.12888 54.7537 9.12888C54.3511 9.12888 53.9888 9.24025 53.6668 9.46304C53.3582 9.67268 53.0965 9.93478 52.8817 10.2493C52.6805 10.5638 52.4859 10.8783 52.298 11.1928C52.1236 11.4942 51.9223 11.7562 51.6942 11.979C51.4795 12.1887 51.2447 12.2935 50.9897 12.2935C50.6676 12.2935 50.4127 12.1887 50.2248 11.979C50.0504 11.7562 49.9631 11.4876 49.9631 11.1731C49.9631 10.3345 50.3993 9.63994 51.2715 9.08957C52.1571 8.5392 53.1904 8.26401 54.3713 8.26401C55.7132 8.26401 56.8404 8.65714 57.7528 9.44338C58.6788 10.2165 59.1417 11.3631 59.1417 12.8832V19.5073C59.1417 20.2935 59.229 20.8636 59.4034 21.2174C59.5779 21.5712 59.9469 21.7481 60.5105 21.7481V22.3378H57.8334C56.9612 22.3378 56.525 21.5581 56.525 19.9987ZM56.525 17.9938V12.9815C55.787 13.3222 55.0758 13.7611 54.3914 14.2984C53.707 14.8226 53.0898 15.504 52.5396 16.3427C51.9894 17.1682 51.7143 18.0003 51.7143 18.839C51.7143 19.35 51.8619 19.7497 52.1571 20.038C52.4524 20.3263 52.8683 20.4704 53.4051 20.4704C54.4518 20.4704 55.4918 19.6449 56.525 17.9938ZM60.7181 9.56132L64.7035 8.26401V10.8586C65.8172 9.12888 67.2061 8.26401 68.8701 8.26401C69.4069 8.26401 69.8631 8.34921 70.2389 8.51954C70.628 8.68988 70.9232 8.89958 71.1245 9.14854C71.3258 9.3975 71.4801 9.72514 71.5875 10.1313C71.7082 10.5375 71.782 10.911 71.8089 11.2517C71.8357 11.5793 71.8491 11.9921 71.8491 12.4901V19.4876C71.8491 20.2739 71.9363 20.8439 72.1108 21.1977C72.2852 21.5515 72.6543 21.7284 73.2179 21.7284V22.3181H67.8637V21.7284C68.4273 21.7284 68.7963 21.5515 68.9708 21.1977C69.1452 20.8439 69.2324 20.2739 69.2324 19.4876V12.4901C69.2324 12.4508 69.2324 12.3918 69.2324 12.3132C69.2324 11.9724 69.2257 11.7169 69.2123 11.5466C69.2123 11.3631 69.1854 11.1338 69.1318 10.8586C69.0915 10.5703 69.0244 10.3541 68.9305 10.21C68.8365 10.0658 68.6956 9.93478 68.5078 9.81684C68.3199 9.69891 68.0851 9.63994 67.8033 9.63994C67.2665 9.63994 66.7029 9.93478 66.1125 10.5245C65.5354 11.1141 65.0658 11.8021 64.7035 12.5884V19.4876C64.7035 20.2739 64.7907 20.8439 64.9652 21.1977C65.1396 21.5515 65.5087 21.7284 66.0723 21.7284V22.3181H60.7181V21.7284C61.2817 21.7284 61.6507 21.5515 61.8251 21.1977C61.9996 20.8439 62.0868 20.2739 62.0868 19.4876V11.4483C62.0868 10.911 62.013 10.5638 61.8654 10.4065C61.7312 10.2362 61.3487 10.151 60.7181 10.151V9.56132ZM74.881 6.84878C74.5321 6.49497 74.3576 6.07564 74.3576 5.59079C74.3576 5.10593 74.5388 4.69316 74.9011 4.35245C75.2634 3.99864 75.6928 3.82174 76.1893 3.82174C76.6858 3.82174 77.1085 3.99864 77.4574 4.35245C77.8197 4.69316 78.0009 5.10593 78.0009 5.59079C78.0009 6.07564 77.8197 6.49497 77.4574 6.84878C77.1085 7.20259 76.6858 7.37949 76.1893 7.37949C75.6794 7.37949 75.2433 7.20259 74.881 6.84878ZM73.6129 9.56132L77.5983 8.26401V19.4876C77.5983 20.2739 77.6855 20.8439 77.86 21.1977C78.0345 21.5515 78.4034 21.7284 78.967 21.7284V22.3181H73.6129V21.7284C74.1765 21.7284 74.5455 21.5515 74.7199 21.1977C74.8944 20.8439 74.9816 20.2739 74.9816 19.4876V11.4483C74.9816 10.911 74.9078 10.5638 74.7602 10.4065C74.626 10.2362 74.2436 10.151 73.6129 10.151V9.56132ZM83.1612 7.28121V8.55886H85.9792V9.44338H83.1612V19.4876C83.1612 20.2739 83.2484 20.8439 83.4229 21.1977C83.5973 21.5515 83.9663 21.7284 84.5299 21.7284V22.3181H79.1757V21.7284C79.7393 21.7284 80.1083 21.5515 80.2828 21.1977C80.4572 20.8439 80.5445 20.2739 80.5445 19.4876V6.53428C80.5445 5.21077 80.947 4.18865 81.7522 3.46793C82.5707 2.7341 83.5436 2.36719 84.6708 2.36719C85.0868 2.36719 85.4961 2.44581 85.8987 2.60306C86.3012 2.74721 86.583 2.91101 86.7441 3.09446V5.78735H86.1603C85.9322 4.09693 85.4424 3.25171 84.691 3.25171C84.3958 3.25171 84.1475 3.33034 83.9462 3.48759C83.7583 3.63173 83.6107 3.80864 83.5034 4.0183C83.396 4.21486 83.3155 4.51625 83.2618 4.92248C83.2216 5.3156 83.1947 5.66941 83.1813 5.98391C83.1679 6.29841 83.1612 6.73084 83.1612 7.28121ZM94.491 17.5613H95.0949C95.1081 19.0945 94.7055 20.3198 93.8872 21.237C93.082 22.1543 92.0624 22.613 90.8276 22.613C89.0293 22.613 87.5937 21.9381 86.5201 20.5884C85.46 19.2387 84.9434 17.5548 84.9702 15.5368C84.9971 13.4008 85.5003 11.6579 86.4799 10.3082C87.4729 8.94541 88.7946 8.26401 90.4452 8.26401C91.8944 8.26401 92.9946 8.72919 93.7463 9.6596C94.5111 10.59 94.8936 11.8807 94.8936 13.5318C94.8936 14.2395 94.7659 14.7178 94.5111 14.9667C94.2564 15.2157 93.733 15.3402 92.9411 15.3402H87.5668C87.6607 16.7685 88.0767 18.0003 88.8148 19.0355C89.5526 20.0707 90.4785 20.5884 91.5925 20.5884C92.3706 20.5884 93.0084 20.3066 93.5047 19.7432C94.0148 19.1666 94.3432 18.4393 94.491 17.5613ZM87.5668 14.4557H90.2841C90.9955 14.4557 91.5051 14.3247 91.8139 14.0626C92.1227 13.8005 92.297 13.2763 92.3373 12.4901C92.3643 11.9528 92.324 11.4417 92.2165 10.9569C92.1227 10.4721 91.9146 10.0527 91.5925 9.69891C91.2837 9.33201 90.888 9.14854 90.4049 9.14854C89.4388 9.14854 88.7209 9.66617 88.2512 10.7014C87.7949 11.7235 87.5668 12.9749 87.5668 14.4557ZM104.578 12.5097H103.974C103.049 10.2165 101.78 9.06991 100.17 9.06991C99.526 9.06991 98.9762 9.24682 98.5196 9.60063C98.0635 9.95444 97.8352 10.4262 97.8352 11.0159C97.8352 11.4221 97.9629 11.8021 98.2177 12.1559C98.4862 12.5097 98.8284 12.8242 99.2442 13.0994C99.6606 13.3746 100.117 13.6564 100.613 13.9446C101.123 14.2198 101.633 14.5146 102.143 14.8291C102.653 15.1306 103.116 15.4516 103.532 15.7923C103.948 16.133 104.283 16.5523 104.538 17.0503C104.807 17.5351 104.941 18.0593 104.941 18.6228C104.941 19.9463 104.444 20.9488 103.451 21.6302C102.472 22.2985 101.277 22.6326 99.8682 22.6326C98.1912 22.6326 96.9294 22.3247 96.084 21.7088V17.3255H96.6879C96.8225 18.5704 97.225 19.6056 97.8956 20.4311C98.5667 21.2567 99.4392 21.6695 100.512 21.6695C101.09 21.6695 101.586 21.4991 102.002 21.1584C102.431 20.8046 102.646 20.3656 102.646 19.8414C102.646 19.3566 102.519 18.9176 102.263 18.5245C102.022 18.1183 101.7 17.7776 101.297 17.5024C100.909 17.2141 100.472 16.9389 99.989 16.6768C99.5197 16.4147 99.0429 16.1395 98.5598 15.8513C98.0906 15.563 97.6541 15.255 97.2515 14.9274C96.8627 14.5867 96.5407 14.1674 96.2853 13.6694C96.0438 13.1715 95.923 12.6146 95.923 11.9987C95.923 10.8717 96.3796 9.96752 97.2917 9.28613C98.2177 8.60474 99.3316 8.26401 100.633 8.26401C102.109 8.26401 103.425 8.67679 104.578 9.50235V12.5097ZM108.584 5.21732H108.786V8.55886H110.215V9.44338H108.786V20.1953C108.786 20.8373 108.953 21.1584 109.289 21.1584C109.436 21.1584 109.591 21.1191 109.752 21.0405C109.913 20.9488 110.034 20.8701 110.114 20.8046C110.195 20.726 110.349 20.5818 110.577 20.3722L111 20.7849C110.329 22.0036 109.383 22.613 108.162 22.613C106.833 22.613 106.169 21.7088 106.169 19.9004V9.44338H104.921V8.55886C106.182 7.83813 107.403 6.72429 108.584 5.21732Z" fill="white"/>
</g>
<defs>
<clipPath id="clip0_11450_26751">
<rect width="111" height="25" fill="white"/>
</clipPath>
</defs>
</svg>
