<svg width="20" height="19" viewBox="0 0 20 19" fill="none" xmlns="http://www.w3.org/2000/svg">
<path fill-rule="evenodd" clip-rule="evenodd" d="M13.5483 0.176739C12.3708 0.262475 11.2984 0.707179 10.3883 1.48705C10.2563 1.60019 8.16283 3.68604 8.10278 3.76428C8.05575 3.82555 7.99907 3.93911 7.97898 4.01228C7.96786 4.05281 7.96479 4.09341 7.9651 4.19628C7.96546 4.31654 7.96744 4.33469 7.98736 4.40028C8.0577 4.63191 8.24817 4.8175 8.48599 4.88615C8.53951 4.90159 8.56635 4.90406 8.6763 4.90359C8.79144 4.9031 8.81138 4.90088 8.87475 4.88156C8.95842 4.85607 9.00994 4.83115 9.0803 4.78218C9.11283 4.75953 9.52907 4.35015 10.1923 3.6885C11.204 2.67925 11.3265 2.56066 11.4923 2.43087C12.025 2.01376 12.6817 1.73285 13.3483 1.63699C13.5455 1.60863 13.6156 1.60328 13.8494 1.59868C14.2849 1.59011 14.6291 1.63361 15.0283 1.74771C15.5864 1.90721 16.0972 2.18375 16.5283 2.55972C17.3391 3.26688 17.8136 4.21013 17.8963 5.27944C17.9067 5.41356 17.9065 5.72389 17.896 5.86068C17.8666 6.24347 17.7827 6.62434 17.652 6.96828C17.5069 7.35024 17.312 7.69823 17.0696 8.00828C16.9408 8.17313 16.8221 8.29578 15.808 9.31228C15.1308 9.99103 14.7349 10.3937 14.7145 10.4243C14.668 10.4941 14.6433 10.5463 14.619 10.6258C14.5997 10.6892 14.5975 10.7091 14.597 10.8243C14.5965 10.9336 14.599 10.9612 14.6141 11.0135C14.6578 11.1646 14.7339 11.2791 14.8608 11.3843C14.934 11.4451 15.0088 11.4853 15.1003 11.5132C15.166 11.5332 15.1839 11.5351 15.3043 11.5355C15.4072 11.5358 15.4478 11.5327 15.4883 11.5216C15.5615 11.5015 15.675 11.4448 15.7363 11.3978C15.8146 11.3377 17.8917 9.25289 18.0094 9.11628C18.3853 8.67999 18.6703 8.22808 18.8924 7.71628C19.5996 6.08651 19.4554 4.19408 18.5098 2.69228C18.181 2.1702 17.7372 1.68027 17.2483 1.29955C16.4822 0.703067 15.5615 0.322299 14.6001 0.204387C14.279 0.165011 13.8605 0.154011 13.5483 0.176739ZM12.5336 6.14013C12.4312 6.15872 12.3414 6.19519 12.2523 6.25437C12.2003 6.28891 6.85495 11.6249 6.78421 11.7129C6.73088 11.7792 6.68552 11.8662 6.65935 11.9523C6.63939 12.0179 6.63745 12.0357 6.63745 12.1523C6.63745 12.2684 6.63944 12.2868 6.65895 12.3507C6.69826 12.4793 6.7631 12.5842 6.85871 12.6736C6.94655 12.7558 7.03395 12.8062 7.14984 12.8416C7.21378 12.8611 7.23214 12.8631 7.3483 12.8631C7.46496 12.8631 7.48265 12.8612 7.548 12.8413C7.63352 12.8151 7.70559 12.7784 7.7763 12.7247C7.85619 12.6641 13.2078 7.3061 13.2462 7.24828C13.2927 7.17831 13.3174 7.12615 13.3416 7.04674C13.3612 6.9828 13.3631 6.96444 13.3631 6.84828C13.3631 6.73167 13.3612 6.71388 13.3413 6.64828C13.2695 6.4125 13.0854 6.22865 12.8523 6.16003C12.7948 6.1431 12.7594 6.13827 12.6763 6.13597C12.6191 6.13439 12.5549 6.13626 12.5336 6.14013ZM4.5622 7.46864C4.46264 7.48647 4.3436 7.54077 4.25771 7.60757C4.18267 7.66592 2.10111 9.75668 1.99102 9.88428C1.50165 10.4515 1.15071 11.0723 0.924234 11.7716C0.605442 12.7559 0.578762 13.8426 0.848906 14.8403C1.03749 15.5368 1.36224 16.1886 1.79944 16.7483C2.06774 17.0917 2.40886 17.4328 2.7523 17.7011C3.69412 18.4369 4.86058 18.8361 6.0683 18.8361C7.38019 18.8361 8.61297 18.3752 9.6163 17.5096C9.74298 17.4003 11.8344 15.3182 11.8924 15.2437C12.0004 15.1048 12.0472 14.9512 12.0379 14.7659C12.0287 14.5813 11.9725 14.452 11.842 14.3151C11.745 14.2133 11.645 14.1521 11.5136 14.1141C11.4612 14.099 11.4337 14.0965 11.3243 14.097C11.2092 14.0975 11.1892 14.0997 11.1258 14.119C11.0463 14.1432 10.9941 14.168 10.9243 14.2145C10.8936 14.2349 10.4923 14.6296 9.8123 15.308C8.79661 16.3213 8.67387 16.4401 8.5083 16.5697C7.95162 17.0056 7.27259 17.2871 6.5643 17.3756C6.26328 17.4133 5.90797 17.4147 5.6003 17.3795C4.89543 17.299 4.20074 17.015 3.6363 16.5768C3.39015 16.3857 3.11749 16.1131 2.9236 15.8643C2.49344 15.3123 2.21134 14.6292 2.12467 13.9298C2.10139 13.742 2.09415 13.5801 2.09869 13.3494C2.10329 13.1156 2.10865 13.0455 2.13701 12.8483C2.23283 12.182 2.51395 11.5247 2.93088 10.9923C3.06067 10.8265 3.17927 10.7039 4.18851 9.69228C4.85017 9.02906 5.25955 8.61282 5.28219 8.58028C5.33116 8.50992 5.35608 8.4584 5.38158 8.37474C5.40094 8.31123 5.4031 8.29167 5.40346 8.17628C5.40389 8.03712 5.39622 7.99448 5.35205 7.89052C5.294 7.75387 5.16433 7.61439 5.02374 7.53739C4.93439 7.48844 4.84515 7.46711 4.7163 7.4639C4.6547 7.46236 4.58535 7.4645 4.5622 7.46864Z" fill="white"/>
</svg>
