<svg width="25" height="24" viewBox="0 0 25 24" fill="none" xmlns="http://www.w3.org/2000/svg">
<g clip-path="url(#clip0_1132_53270)">
<path d="M24.1729 12C24.1729 5.37263 18.8002 0 12.1729 0C5.54548 0 0.172852 5.37253 0.172852 12C0.172852 17.9895 4.5611 22.954 10.2979 23.8542V15.4688H7.25098V12H10.2979V9.35625C10.2979 6.34875 12.0894 4.6875 14.8304 4.6875C16.1434 4.6875 17.5166 4.92188 17.5166 4.92188V7.875H16.0035C14.5127 7.875 14.0479 8.80003 14.0479 9.74906V12H17.376L16.8439 15.4688H14.0479V23.8542C19.7846 22.954 24.1729 17.9896 24.1729 12Z" fill="#1877F2"/>
<path d="M16.8439 15.4688L17.376 12H14.0479V9.74906C14.0479 8.79994 14.5128 7.875 16.0035 7.875H17.5166V4.92188C17.5166 4.92188 16.1434 4.6875 14.8304 4.6875C12.0894 4.6875 10.2979 6.34875 10.2979 9.35625V12H7.25098V15.4688H10.2979V23.8542C10.9181 23.9514 11.545 24.0002 12.1729 24C12.8007 24.0002 13.4276 23.9514 14.0479 23.8542V15.4688H16.8439Z" fill="white"/>
</g>
<defs>
<clipPath id="clip0_1132_53270">
<rect width="24" height="24" fill="white" transform="translate(0.172852)"/>
</clipPath>
</defs>
</svg>
