<svg width="25" height="24" viewBox="0 0 25 24" fill="none" xmlns="http://www.w3.org/2000/svg">
<g clip-path="url(#clip0_1132_53265)">
<path d="M18.5479 0H5.79785C2.69125 0 0.172852 2.5184 0.172852 5.625V18.375C0.172852 21.4816 2.69125 24 5.79785 24H18.5479C21.6545 24 24.1729 21.4816 24.1729 18.375V5.625C24.1729 2.5184 21.6545 0 18.5479 0Z" fill="url(#paint0_radial_1132_53265)"/>
<path d="M18.5479 0H5.79785C2.69125 0 0.172852 2.5184 0.172852 5.625V18.375C0.172852 21.4816 2.69125 24 5.79785 24H18.5479C21.6545 24 24.1729 21.4816 24.1729 18.375V5.625C24.1729 2.5184 21.6545 0 18.5479 0Z" fill="url(#paint1_radial_1132_53265)"/>
<path d="M12.1737 2.625C9.62763 2.625 9.30804 2.63616 8.3081 2.68163C7.31004 2.72738 6.62876 2.88534 6.0327 3.11719C5.41601 3.35662 4.89298 3.67697 4.37191 4.19822C3.85038 4.71937 3.53004 5.24241 3.28985 5.85881C3.05735 6.45506 2.8992 7.13662 2.85429 8.13422C2.80957 9.13425 2.79785 9.45394 2.79785 12.0001C2.79785 14.5463 2.8091 14.8648 2.85448 15.8647C2.90041 16.8628 3.05838 17.5441 3.29004 18.1402C3.52966 18.7568 3.85001 19.2799 4.37126 19.8009C4.89223 20.3225 5.41526 20.6436 6.03148 20.883C6.62801 21.1148 7.30938 21.2728 8.30726 21.3186C9.30729 21.364 9.6266 21.3752 12.1726 21.3752C14.7189 21.3752 15.0375 21.364 16.0374 21.3186C17.0355 21.2728 17.7175 21.1148 18.314 20.883C18.9304 20.6436 19.4527 20.3225 19.9736 19.8009C20.4951 19.2799 20.8154 18.7568 21.0557 18.1404C21.2861 17.5441 21.4444 16.8626 21.4912 15.8649C21.5361 14.865 21.5479 14.5463 21.5479 12.0001C21.5479 9.45394 21.5361 9.13444 21.4912 8.13441C21.4444 7.13634 21.2861 6.45516 21.0557 5.85909C20.8154 5.24241 20.4951 4.71937 19.9736 4.19822C19.4522 3.67678 18.9306 3.35644 18.3135 3.11728C17.7158 2.88534 17.0342 2.72728 16.0361 2.68163C15.0361 2.63616 14.7177 2.625 12.1708 2.625H12.1737ZM11.3327 4.31447C11.5823 4.31409 11.8609 4.31447 12.1737 4.31447C14.6769 4.31447 14.9735 4.32347 15.962 4.36838C16.8761 4.41019 17.3722 4.56291 17.7027 4.69125C18.1402 4.86112 18.4521 5.06428 18.7801 5.3925C19.1082 5.72062 19.3113 6.03309 19.4816 6.47062C19.6099 6.80062 19.7629 7.29675 19.8045 8.21081C19.8494 9.19913 19.8591 9.49594 19.8591 11.9979C19.8591 14.4999 19.8494 14.7968 19.8045 15.7851C19.7627 16.6991 19.6099 17.1952 19.4816 17.5253C19.3117 17.9629 19.1082 18.2744 18.7801 18.6023C18.4519 18.9305 18.1404 19.1335 17.7027 19.3035C17.3726 19.4324 16.8761 19.5848 15.962 19.6266C14.9737 19.6715 14.6769 19.6812 12.1737 19.6812C9.67038 19.6812 9.37366 19.6715 8.38545 19.6266C7.47138 19.5844 6.97526 19.4317 6.64451 19.3033C6.20707 19.1333 5.89451 18.9303 5.56638 18.6022C5.23826 18.274 5.0352 17.9623 4.86485 17.5246C4.73651 17.1945 4.5836 16.6984 4.54198 15.7843C4.49707 14.796 4.48807 14.4992 4.48807 11.9956C4.48807 9.49209 4.49707 9.19678 4.54198 8.20847C4.58379 7.29441 4.73651 6.79828 4.86485 6.46781C5.03482 6.03028 5.23826 5.71781 5.56648 5.38969C5.8946 5.06156 6.20707 4.85841 6.6446 4.68816C6.97507 4.55925 7.47138 4.40691 8.38545 4.36491C9.25029 4.32581 9.58545 4.31409 11.3327 4.31212V4.31447ZM17.1781 5.87109C16.557 5.87109 16.0531 6.37453 16.0531 6.99572C16.0531 7.61681 16.557 8.12072 17.1781 8.12072C17.7992 8.12072 18.3031 7.61681 18.3031 6.99572C18.3031 6.37463 17.7992 5.87072 17.1781 5.87072V5.87109ZM12.1737 7.18556C9.51495 7.18556 7.35926 9.34125 7.35926 12.0001C7.35926 14.6589 9.51495 16.8136 12.1737 16.8136C14.8325 16.8136 16.9875 14.6589 16.9875 12.0001C16.9875 9.34134 14.8324 7.18556 12.1735 7.18556H12.1737ZM12.1737 8.87503C13.8995 8.87503 15.2988 10.2741 15.2988 12.0001C15.2988 13.7259 13.8995 15.1252 12.1737 15.1252C10.4478 15.1252 9.04873 13.7259 9.04873 12.0001C9.04873 10.2741 10.4478 8.87503 12.1737 8.87503Z" fill="white"/>
</g>
<defs>
<radialGradient id="paint0_radial_1132_53265" cx="0" cy="0" r="1" gradientUnits="userSpaceOnUse" gradientTransform="translate(6.54785 25.8485) rotate(-90) scale(23.7858 22.1227)">
<stop stop-color="#FFDD55"/>
<stop offset="0.1" stop-color="#FFDD55"/>
<stop offset="0.5" stop-color="#FF543E"/>
<stop offset="1" stop-color="#C837AB"/>
</radialGradient>
<radialGradient id="paint1_radial_1132_53265" cx="0" cy="0" r="1" gradientUnits="userSpaceOnUse" gradientTransform="translate(-3.84724 1.72884) rotate(78.681) scale(10.6324 43.827)">
<stop stop-color="#3771C8"/>
<stop offset="0.128" stop-color="#3771C8"/>
<stop offset="1" stop-color="#6600FF" stop-opacity="0"/>
</radialGradient>
<clipPath id="clip0_1132_53265">
<rect width="24" height="24" fill="white" transform="translate(0.172852)"/>
</clipPath>
</defs>
</svg>
