<svg width="21" height="20" viewBox="0 0 21 20" fill="none" xmlns="http://www.w3.org/2000/svg">
<g clip-path="url(#clip0_1132_53261)">
<path d="M7.31569 1.57855C7.48276 1.79318 7.65206 2.0062 7.8165 2.22305C8.71657 3.41029 9.61542 4.59854 10.5149 5.78639C10.7788 6.13489 11.044 6.48258 11.309 6.83048C11.3306 6.85895 11.3545 6.8856 11.3864 6.92457C11.4712 6.83129 11.5487 6.7487 11.6231 6.6635C12.3047 5.88432 12.9853 5.10433 13.6676 4.32536C14.2501 3.66026 14.8342 2.99658 15.4169 2.33188C15.623 2.09686 15.8257 1.8588 16.0351 1.62661C16.0666 1.59147 16.1253 1.56179 16.1716 1.56159C17.0743 1.55755 17.9768 1.55856 18.8795 1.55917C18.9046 1.55917 18.9298 1.56704 18.9737 1.57451C18.9456 1.61611 18.9288 1.6472 18.9062 1.67305C18.3465 2.31331 17.7867 2.95337 17.2258 3.59262C16.6827 4.21148 16.1374 4.82872 15.5945 5.44779C15.0005 6.125 14.4078 6.80342 13.8144 7.48104C13.4823 7.86043 13.152 8.24144 12.8158 8.61719C12.7507 8.69008 12.7499 8.73854 12.8079 8.81466C13.6407 9.90963 14.4703 11.0066 15.3012 12.103C16.0367 13.0732 16.7729 14.043 17.5081 15.0134C18.3429 16.1152 19.177 17.2172 20.0101 18.3205C20.0356 18.3542 20.0449 18.4002 20.0617 18.4404C20.054 18.4337 20.0463 18.4269 20.0385 18.4202C19.8594 18.1805 19.6817 17.9399 19.501 17.7014C18.5933 16.5031 17.6845 15.3057 16.7768 14.1074C15.9991 13.0807 15.2226 12.0529 14.4451 11.026C13.8848 10.286 13.3245 9.54599 12.7622 8.8076C12.7105 8.73976 12.707 8.69332 12.7669 8.62568C13.1744 8.16511 13.5774 7.70011 13.9827 7.23753C14.4722 6.67884 14.9635 6.12157 15.4525 5.56247C16.0324 4.8998 16.6097 4.2347 17.19 3.57243C17.6928 2.9986 18.1985 2.42739 18.7025 1.85456C18.7743 1.77279 18.8429 1.68819 18.9333 1.58097H18.7846C17.963 1.58097 17.1412 1.58562 16.3196 1.57694C16.1617 1.57532 16.0642 1.63529 15.9701 1.74735C15.7604 1.99671 15.5427 2.23981 15.3279 2.48493C15.0221 2.83384 14.7159 3.18213 14.4101 3.53084C14.0511 3.94011 13.6922 4.34979 13.3332 4.75906C13.023 5.11281 12.7127 5.46656 12.4022 5.82011C12.0895 6.17628 11.7774 6.53286 11.4631 6.88742C11.384 6.97666 11.3759 6.97343 11.3055 6.88055C10.5843 5.92914 9.86279 4.97794 9.14193 4.02633C8.52462 3.21141 7.90792 2.39589 7.29102 1.58057C7.29931 1.57996 7.3076 1.57936 7.31569 1.57875V1.57855Z" fill="white"/>
<path d="M14.3073 18.4398C14.0638 18.1268 13.8182 17.8155 13.5769 17.5007C12.3395 15.8862 11.1031 14.2707 9.86601 12.6558C9.84619 12.63 9.82272 12.6068 9.79137 12.5714C9.71512 12.6552 9.64453 12.7301 9.57697 12.8075C9.03713 13.4247 8.49831 14.0428 7.95786 14.6596C7.51045 15.1702 7.06062 15.6786 6.61341 16.1893C6.17289 16.6924 5.73418 17.1972 5.29425 17.7008C5.09745 17.9261 4.90004 18.1509 4.70203 18.375C4.68018 18.3998 4.65146 18.4186 4.62598 18.4402C4.62598 18.4327 4.62598 18.425 4.62598 18.4176C4.64317 18.3927 4.65814 18.3661 4.67796 18.3435C5.10514 17.8557 5.53252 17.368 5.96051 16.8806C6.53696 16.2242 7.11402 15.5682 7.69026 14.9116C8.35065 14.1589 9.01064 13.4057 9.67062 12.6528C9.79441 12.5117 9.79623 12.5109 9.9095 12.6586C10.9483 14.0143 11.9865 15.3701 13.0254 16.7256C13.4588 17.2913 13.8931 17.8565 14.3269 18.4218C14.3205 18.4277 14.3142 18.4337 14.3077 18.4396L14.3073 18.4398Z" fill="white"/>
<path d="M7.49213 11.8846C7.59467 11.7609 7.6952 11.6353 7.80017 11.5135C7.98443 11.2999 8.1687 11.0859 8.35923 10.8779C8.4193 10.8123 8.42112 10.7689 8.36712 10.699C7.92112 10.122 7.47918 9.54166 7.03541 8.96278C6.55888 8.3413 6.08114 7.72082 5.60501 7.09913C4.43775 5.57571 3.27109 4.05168 2.10464 2.52765C1.86779 2.21812 1.63195 1.90778 1.39551 1.59785C1.40865 1.59199 1.4218 1.58593 1.43495 1.58008C1.45922 1.61985 1.48026 1.66205 1.50837 1.6988C1.87649 2.17895 2.24643 2.65748 2.61414 3.13763C3.69322 4.54636 4.77128 5.95551 5.84995 7.36465C6.31981 7.97846 6.78946 8.59227 7.25932 9.20608C7.64119 9.70521 8.02205 10.2049 8.40595 10.7027C8.4551 10.7665 8.4642 10.8109 8.40352 10.8747C8.28803 10.9964 8.18346 11.1283 8.07141 11.2535C7.88128 11.4663 7.68913 11.6771 7.49759 11.8887L7.49213 11.8844V11.8846Z" fill="white"/>
<path d="M1.77832 18.4407C1.7941 18.4039 1.80178 18.3603 1.82666 18.3314C2.07464 18.0439 2.32544 17.7588 2.57564 17.4731C2.93183 17.066 3.28801 16.6588 3.6444 16.2519C3.9478 15.9057 4.2518 15.5602 4.55519 15.2141C4.91178 14.8075 5.26776 14.4 5.62456 13.9935C5.9326 13.6424 6.24146 13.2921 6.54971 12.9414C6.72042 12.7469 6.88991 12.5515 7.06143 12.3579C7.10816 12.3052 7.15994 12.2573 7.20949 12.207L7.21475 12.2115C7.1033 12.3451 6.99408 12.4808 6.8796 12.6121C6.5309 13.0119 6.17957 13.4094 5.83026 13.8086C5.43686 14.2585 5.04487 14.7097 4.65147 15.1596C4.30439 15.5563 3.95609 15.9521 3.6084 16.3482C3.19436 16.8201 2.77973 17.2918 2.3667 17.7645C2.17678 17.9817 1.98989 18.2016 1.80178 18.4203C1.79389 18.4271 1.78621 18.4338 1.77832 18.4407Z" fill="white"/>
<path d="M1.43495 1.5802C1.4218 1.58605 1.40865 1.59211 1.39551 1.59797C1.43717 1.58504 1.47864 1.56122 1.52051 1.56102C2.02556 1.55839 2.53081 1.5592 3.03586 1.5592C4.40984 1.5592 5.78401 1.559 7.15799 1.56001C7.21078 1.56001 7.26337 1.57212 7.31616 1.57858C7.30786 1.57919 7.29977 1.57979 7.29148 1.5802C5.33924 1.5802 3.38719 1.5802 1.43495 1.5802Z" fill="white"/>
<path d="M14.3066 18.4387C14.3131 18.4328 14.3194 18.4267 14.3259 18.4209C14.521 18.4209 14.716 18.4207 14.9112 18.4207C16.6203 18.4202 18.3295 18.4198 20.0386 18.4194C20.0463 18.4261 20.0542 18.433 20.0618 18.4397C19.557 18.4403 19.0521 18.4416 18.5473 18.4418C17.1842 18.442 15.8212 18.4418 14.4581 18.4418C14.4078 18.4418 14.3572 18.4399 14.3068 18.4389L14.3066 18.4387Z" fill="white"/>
<path d="M1.77832 18.4403C1.78621 18.4334 1.79389 18.4267 1.80178 18.4198C2.33616 18.4202 2.87074 18.4213 3.40533 18.4208C3.81208 18.4204 4.21883 18.4184 4.62538 18.417C4.62538 18.4245 4.62538 18.4322 4.62538 18.4397C3.67636 18.4397 2.72734 18.4401 1.77832 18.4403Z" fill="white"/>
<path d="M7.20898 12.2065C7.30324 12.0991 7.39749 11.9917 7.49175 11.8843L7.49721 11.8885C7.40295 11.9961 7.3085 12.1036 7.21424 12.2112L7.20898 12.2067V12.2065Z" fill="white"/>
<path d="M7.21424 12.2108C7.3085 12.1032 7.40295 11.9958 7.49721 11.8882C7.68855 11.6766 7.8809 11.4658 8.07103 11.2529C8.18288 11.1278 8.28745 10.9957 8.40314 10.8742C8.46382 10.8102 8.45472 10.7657 8.40557 10.7021C8.02167 10.2046 7.64081 9.70468 7.25894 9.20556C6.78929 8.59175 6.31943 7.97793 5.84957 7.36412C4.7711 5.95498 3.69284 4.54564 2.61376 3.1369C2.24605 2.65675 1.87611 2.17822 1.50799 1.69807C1.47988 1.66133 1.45884 1.61892 1.43457 1.57935C3.38681 1.57935 5.33906 1.57935 7.2911 1.57935C7.908 2.39467 8.5247 3.21019 9.14201 4.02511C9.86288 4.97672 10.5843 5.92792 11.3056 6.87933C11.376 6.97221 11.3841 6.97544 11.4632 6.8862C11.7777 6.53164 12.0896 6.17486 12.4023 5.81889C12.7128 5.46534 13.023 5.11159 13.3333 4.75784C13.6923 4.34837 14.0511 3.93889 14.4102 3.52962C14.716 3.18091 15.0222 2.83262 15.328 2.48371C15.5428 2.23859 15.7605 1.99569 15.9702 1.74613C16.0643 1.63427 16.1618 1.5741 16.3197 1.57572C17.1413 1.5846 17.9631 1.57975 18.7847 1.57975H18.9334C18.843 1.68697 18.7744 1.77157 18.7026 1.85334C18.1987 2.42617 17.6929 2.99738 17.1901 3.57121C16.6098 4.23348 16.0325 4.89838 15.4526 5.56125C14.9635 6.12035 14.4723 6.67762 13.9828 7.23631C13.5774 7.69889 13.1747 8.1639 12.767 8.62446C12.7071 8.6921 12.7105 8.73854 12.7623 8.80638C13.3246 9.54477 13.8851 10.2848 14.4451 11.0248C15.2226 12.0517 15.9989 13.0794 16.7768 14.1062C17.6846 15.3045 18.5934 16.5018 19.5011 17.7002C19.6817 17.9386 19.8595 18.1793 20.0385 18.419C18.3294 18.4194 16.6203 18.4198 14.9112 18.4202C14.716 18.4202 14.521 18.4202 14.3258 18.4204C13.892 17.8551 13.4577 17.2899 13.0243 16.7241C11.9854 15.3687 10.9472 14.0127 9.90839 12.6572C9.79512 12.5094 9.7933 12.5102 9.66951 12.6514C9.00953 13.4043 8.34954 14.1576 7.68915 14.9102C7.11291 15.5668 6.53585 16.2228 5.9594 16.8792C5.53161 17.3664 5.10403 17.854 4.67685 18.3421C4.65703 18.3647 4.64206 18.3913 4.62487 18.4162C4.21812 18.4174 3.81136 18.4196 3.40482 18.4198C2.87023 18.4202 2.33585 18.4192 1.80127 18.4188C1.98958 18.2001 2.17647 17.9802 2.3664 17.763C2.77942 17.2901 3.19406 16.8186 3.60809 16.3468C3.95578 15.9506 4.30408 15.5549 4.65116 15.1581C5.04456 14.7083 5.43655 14.257 5.82995 13.8071C6.17926 13.4077 6.53059 13.0104 6.87929 12.6106C6.99377 12.4794 7.10279 12.3437 7.21444 12.21L7.21424 12.2108ZM15.1098 16.7292C15.1527 16.7351 15.1955 16.7453 15.2384 16.7458C15.3966 16.7478 15.555 16.7466 15.7133 16.7466C15.9963 16.7466 16.2791 16.7476 16.562 16.7453C16.5999 16.7451 16.6377 16.7296 16.6755 16.7211C16.6599 16.6832 16.6446 16.6448 16.6282 16.6072C16.6243 16.5982 16.6166 16.5907 16.6106 16.5828C16.1953 16.0366 15.7795 15.4911 15.3648 14.9443C14.4563 13.7466 13.5483 12.5484 12.6402 11.3503C11.8499 10.3076 11.0595 9.26512 10.2694 8.22225C9.45087 7.14202 8.63251 6.06159 7.81456 4.98076C7.38434 4.41217 6.95474 3.84318 6.52594 3.27339C6.47881 3.2108 6.42905 3.17001 6.3433 3.17062C5.84492 3.17365 5.34654 3.17163 4.84796 3.17304C4.81156 3.17304 4.77535 3.18576 4.72175 3.19606C4.75432 3.24391 4.77292 3.2748 4.79497 3.30327C4.96932 3.52982 5.14509 3.75515 5.31903 3.9821C6.40377 5.39649 7.4881 6.81109 8.57264 8.22548C9.31333 9.19163 10.0548 10.157 10.7953 11.1233C11.9387 12.6154 13.0813 14.1084 14.2247 15.6003C14.5131 15.9767 14.8038 16.351 15.0934 16.7264C15.0989 16.7278 15.1043 16.7288 15.1098 16.7292Z" fill="white"/>
<path d="M15.0943 16.7267C14.8047 16.3513 14.514 15.977 14.2256 15.6006C13.082 14.1085 11.9396 12.6157 10.7962 11.1236C10.0557 10.1573 9.31423 9.19171 8.57354 8.22577C7.48901 6.81137 6.40468 5.39678 5.31994 3.98239C5.14599 3.75564 4.97023 3.53011 4.79588 3.30356C4.77403 3.27509 4.75522 3.2442 4.72266 3.19635C4.77626 3.18625 4.81266 3.17353 4.84887 3.17333C5.34725 3.17191 5.84562 3.17393 6.3442 3.17091C6.42996 3.1703 6.47972 3.21109 6.52684 3.27368C6.95544 3.84347 7.38505 4.41246 7.81546 4.98104C8.63341 6.06168 9.45177 7.14211 10.2703 8.22254C11.0604 9.26541 11.8508 10.3079 12.6411 11.3506C13.5492 12.5487 14.4572 13.7468 15.3657 14.9446C15.7804 15.4912 16.1962 16.0369 16.6115 16.5831C16.6176 16.5912 16.6252 16.5986 16.6291 16.6075C16.6455 16.6453 16.6606 16.6834 16.6764 16.7214C16.6386 16.7299 16.6008 16.7454 16.5629 16.7456C16.28 16.7477 15.9972 16.7468 15.7142 16.7468C15.5559 16.7468 15.3977 16.7481 15.2393 16.746C15.1964 16.7454 15.1536 16.7353 15.1107 16.7295C15.587 16.7289 16.0631 16.7285 16.5393 16.7267C16.5684 16.7267 16.5977 16.7135 16.6269 16.7065C16.607 16.6683 16.5919 16.6267 16.5666 16.5928C16.3548 16.3103 16.141 16.0293 15.928 15.7476C15.1552 14.7257 14.3832 13.7032 13.6097 12.6818C12.8403 11.6655 12.0697 10.6505 11.2999 9.63471C10.2906 8.3027 9.28167 6.97028 8.27238 5.63807C7.68359 4.86071 7.09379 4.08415 6.50621 3.30578C6.45747 3.24117 6.40569 3.20987 6.32155 3.21048C5.85007 3.21411 5.3788 3.2121 4.90732 3.2125C4.87557 3.2125 4.84381 3.21734 4.79203 3.22138C4.82136 3.26459 4.83795 3.29205 4.85736 3.31749C5.0125 3.52062 5.16844 3.72293 5.32378 3.92585C6.33126 5.24232 7.33853 6.55899 8.3462 7.87525C9.04118 8.78304 9.73696 9.69023 10.4323 10.5976C11.5571 12.0655 12.6815 13.5338 13.8065 15.0017C14.2422 15.5701 14.6791 16.1377 15.1153 16.7057C15.1081 16.7125 15.101 16.7194 15.0937 16.7263L15.0943 16.7267Z" fill="white"/>
<path d="M15.0938 16.7268C15.101 16.7199 15.1081 16.713 15.1154 16.7061C15.619 16.7061 16.1229 16.7065 16.6265 16.7067C16.5974 16.7138 16.5682 16.7268 16.5389 16.727C16.0628 16.7288 15.5865 16.7292 15.1103 16.7298C15.1047 16.7294 15.0992 16.7284 15.094 16.727L15.0938 16.7268Z" fill="white"/>
</g>
<defs>
<clipPath id="clip0_1132_53261">
<rect width="20" height="18.1818" fill="white" transform="translate(0.728516 0.90918)"/>
</clipPath>
</defs>
</svg>
