<svg width="30" height="20" viewBox="0 0 30 20" fill="none" xmlns="http://www.w3.org/2000/svg">
<g clip-path="url(#clip0_1132_53262)">
<path d="M28.5448 3.11944C28.3816 2.51651 28.0634 1.96683 27.6217 1.52514C27.18 1.08346 26.6304 0.765179 26.0274 0.602C23.8201 0 14.9363 0 14.9363 0C14.9363 0 6.05209 0.0182222 3.84476 0.620222C3.24181 0.783411 2.69214 1.10171 2.25047 1.54341C1.80881 1.98512 1.49056 2.53482 1.32743 3.13778C0.659759 7.05978 0.400759 13.036 1.34576 16.8011C1.50891 17.404 1.82717 17.9537 2.26883 18.3954C2.7105 18.8371 3.26016 19.1554 3.86309 19.3186C6.07043 19.9206 14.9544 19.9206 14.9544 19.9206C14.9544 19.9206 23.8383 19.9206 26.0455 19.3186C26.6485 19.1554 27.1982 18.8371 27.6399 18.3954C28.0815 17.9538 28.3998 17.4041 28.563 16.8011C29.2672 12.8736 29.4842 6.901 28.5448 3.11944Z" fill="#FF0000"/>
<path d="M12.1084 14.2287L19.4782 9.96007L12.1084 5.69141V14.2287Z" fill="white"/>
</g>
<defs>
<clipPath id="clip0_1132_53262">
<rect width="28.4444" height="20" fill="white" transform="translate(0.728516)"/>
</clipPath>
</defs>
</svg>
