<svg width="118" height="24" viewBox="0 0 118 24" fill="none" xmlns="http://www.w3.org/2000/svg">
<path d="M11.7907 0.570732C11.2406 2.67805 10.9241 5.16585 10.817 8.28781L10.783 9.22927L10.3692 8.8439C9.77039 8.28781 9.26897 7.89268 8.58742 7.43415C8.00811 7.04878 6.90791 6.45366 6.38702 6.24878L6.13874 6.15122L6.26045 6.50244C6.4503 7.02439 6.85923 7.86829 7.17566 8.38537C7.60892 9.07805 7.99838 9.57561 8.62637 10.2244L9.20081 10.8146L8.13955 10.8488C6.2069 10.9073 4.61988 11.0537 2.98905 11.3171C1.66491 11.5317 0 11.9122 0 12C0 12.0878 1.66491 12.4683 2.98905 12.6829C4.61988 12.9463 6.2069 13.0927 8.13955 13.1512L9.19594 13.1854L8.9428 13.4732C7.80852 14.7463 7.20487 15.6098 6.62069 16.7854C6.41623 17.2049 6.2215 17.6146 6.19229 17.6976L6.13874 17.8488L6.48925 17.722C7.01014 17.5366 7.85233 17.1268 8.36836 16.8098C9.05963 16.3756 9.55619 15.9854 10.2037 15.3561L10.7927 14.7805L10.8268 15.8439C10.8998 18.2634 11.1286 20.3707 11.5181 22.2683C11.6787 23.0488 11.9318 24 11.9757 24C12.0195 24 12.2726 23.0488 12.4333 22.2683C12.8227 20.3707 13.0418 18.3073 13.1343 15.7171L13.1684 14.7756L13.5821 15.1561C14.6093 16.1024 15.5732 16.7707 16.7367 17.3561C17.1554 17.5659 17.5692 17.761 17.6568 17.7902L17.8126 17.8488L17.686 17.4976C17.501 16.9756 17.0921 16.1317 16.7757 15.6146C16.3424 14.922 15.9529 14.4244 15.3249 13.7756L14.7505 13.1854L15.8848 13.1512C18.0219 13.0878 20.0325 12.878 21.8483 12.5317C22.5882 12.3951 24 12.0439 24 12C24 11.9561 22.5882 11.6049 21.8483 11.4683C20.0227 11.122 18.0073 10.9122 15.8556 10.8488L14.7018 10.8146L15.0621 10.4439C15.9237 9.56585 16.7221 8.42927 17.3209 7.22439C17.5302 6.80488 17.7249 6.39512 17.7542 6.30732L17.8126 6.15122L17.4621 6.27317C16.9509 6.45366 16.1087 6.86829 15.583 7.19512C14.8917 7.62439 14.3951 8.01464 13.7477 8.6439L13.1586 9.21951L13.1245 8.1561C13.0515 5.73659 12.8227 3.62927 12.4333 1.73171C12.2726 0.95122 12.0195 0 11.9757 0C11.9562 0 11.8734 0.258537 11.7907 0.570732Z" fill="white"/>
<path d="M114.525 10.0474H117.472V9.2616H114.525V7.12035C114.525 1.7574 104.546 2.42531 104.546 6.94355C104.546 7.90613 104.939 8.71155 105.253 9.2616C102.503 9.04551 100.263 10.126 100.263 12.6994C100.263 14.2317 101.167 15.3907 102.974 15.98C104.782 16.5693 106.53 17.0408 106.53 18.1409C106.53 19.0838 105.332 19.6142 104.369 19.6142C103.151 19.6142 101.972 19.1624 102.444 18.1606C102.876 17.2765 102.463 16.4318 101.579 16.314C100.578 16.1961 99.9293 17.2569 100.185 18.2588C100.597 19.9089 102.444 20.6947 104.349 20.675C106.667 20.6358 109.084 19.4178 109.084 17.0801C109.084 15.6461 108.298 14.2709 106.53 13.6227C102.974 12.3065 102.699 12.2868 102.699 11.5796C102.699 9.92951 107.06 9.77235 106.294 11.3636C105.862 12.2476 106.294 13.0923 107.158 13.1905C108.16 13.328 108.809 12.2476 108.573 11.2653C108.396 10.4796 107.669 10.1063 106.923 9.6152C106.137 9.08479 105.764 8.04364 105.764 7.00248C105.764 2.87713 113.288 3.11287 113.288 6.47208C113.288 8.3383 111.5 9.2616 109.614 9.2616V10.0474H111.087V17.8855C111.087 19.3196 112.404 20.4982 113.877 20.4982C116.038 20.4982 117.059 18.966 117.472 17.198L117.354 17.1587C116.784 18.357 116.136 18.6713 115.566 18.6713C114.407 18.6713 114.525 17.198 114.525 15.9014V10.0474Z" fill="white"/>
<path d="M94.518 9.26123C91.2571 9.26123 89.0176 11.9525 89.0176 14.9974C89.0176 18.1602 91.2963 20.4979 94.4198 20.4979C96.345 20.4979 98.1326 19.2013 98.8595 17.119L98.6827 17.0405C98.0148 18.2584 96.9343 18.6513 95.8342 18.6906C93.7519 18.7692 92.475 16.9226 92.475 14.3884H99.1541C99.2327 11.4418 97.3665 9.26123 94.518 9.26123ZM92.5339 13.6027C92.5339 11.5793 93.3787 10.2631 94.4395 10.2631C95.5003 10.2631 96.345 11.5793 96.345 13.6027H92.5339Z" fill="white"/>
<path d="M90.7267 5.41076C90.157 3.91778 86.7192 2.9552 84.2047 4.5857C83.1243 5.27325 82.6332 6.51086 82.6332 8.08242V9.26109H81.5527V10.0469H82.6332V18.8083C82.6332 19.3584 82.201 19.7905 81.651 19.7905V20.2816H87.0532V19.7905C86.5031 19.7905 86.071 19.3584 86.071 18.8083V10.0469H88.0354V9.26109H86.071V7.10019C86.071 4.84107 87.3675 4.64463 87.9568 4.74285C88.4283 4.82143 88.4676 5.33219 88.3104 5.80365C88.2319 6.01974 88.1729 6.1769 88.1729 6.37335C88.1729 7.08055 88.7623 7.66988 89.4695 7.66988C90.5303 7.66988 91.1 6.43228 90.7267 5.41076Z" fill="white"/>
<path d="M78.7722 5.13613C79.0865 5.47008 80.3437 6.00048 80.3437 6.00048C80.3437 6.00048 79.0865 6.55053 78.7722 6.88449C78.4382 7.1988 77.8882 8.45605 77.8882 8.45605C77.8882 8.45605 77.3381 7.1988 77.0238 6.88449C76.7095 6.55053 75.4326 6.00048 75.4326 6.00048C75.4326 6.00048 76.7095 5.47008 77.0238 5.13613C77.3381 4.82181 77.8882 3.54492 77.8882 3.54492C77.8882 3.54492 78.4382 4.82181 78.7722 5.13613ZM79.8526 9.39898L75.4326 10.1062L75.5112 10.5777C75.9827 10.5187 76.4148 10.8723 76.4148 11.3438V18.8087C76.4148 19.3587 75.9827 19.7909 75.4326 19.7909V20.282H80.8349V19.7909C80.2848 19.7909 79.8526 19.3587 79.8526 18.8087V9.39898Z" fill="white"/>
<path d="M71.3905 9.26123C68.9742 9.26123 67.3634 11.4418 67.3634 11.4418V9.39874L62.9434 10.1059L63.0219 10.5774C63.5916 10.5774 63.9256 10.8917 63.9256 11.3435V18.8085C63.9256 19.3585 63.4934 19.7907 62.9434 19.7907V20.2818H68.3456V19.7907C67.7955 19.7907 67.3634 19.3585 67.3634 18.8085V12.424C67.4419 12.3258 68.2277 11.1667 69.1903 11.1667C69.8386 11.1667 70.31 11.6186 70.31 12.1097V18.8085C70.31 19.3585 69.8779 19.7907 69.3278 19.7907V20.2818H74.7301V19.7907C74.18 19.7907 73.7478 19.3585 73.7478 18.8085V11.4811C73.7478 10.9114 73.4139 9.26123 71.3905 9.26123Z" fill="white"/>
<path d="M62.5304 17.865C61.9411 19.0633 60.507 19.6919 60.507 16.8827V13.5825C60.507 12.0305 59.9962 10.8322 58.9354 10.1447C56.4406 8.53382 52.0009 9.22138 51.3134 11.7948C51.1562 12.3645 51.333 12.9145 51.5491 13.2289C51.8438 13.6414 52.3938 13.8968 52.9242 13.8182C53.6314 13.7003 54.1029 13.0324 53.985 12.3252C53.9457 12.1288 53.8475 11.9913 53.7689 11.7948C53.0028 9.79107 57.0692 9.29996 57.0692 12.6592V14.1325C55.5762 14.604 50.8223 14.879 50.8223 17.8846C50.8223 19.5151 51.8634 20.517 53.6707 20.517C55.1244 20.517 56.1852 19.7312 57.1478 18.5722C57.4228 19.6919 58.3265 20.5366 59.5444 20.5366C61.2928 20.5366 62.2161 19.6723 62.6286 17.9042L62.5304 17.865ZM55.753 18.7293C54.7905 18.8472 54.2601 18.1793 54.2601 17.256C54.2601 16.2738 55.3798 15.6058 57.0692 14.8397V17.806C56.5781 18.3364 56.087 18.69 55.753 18.7293Z" fill="white"/>
<path d="M50.1749 4.56641H42.3171V5.05752C43.3386 5.05752 44.0262 5.88259 43.6726 7.02197L40.0776 18.4944L36.5023 7.02197C36.1684 5.94152 36.7774 5.05752 37.8578 5.05752V4.56641H30V5.05752C31.2572 5.19503 31.9644 5.96117 31.9644 7.02197V17.8264C31.9644 18.9069 31.0804 19.7909 30 19.7909V20.282H35.1076V19.7909C34.0271 19.7909 33.1431 18.9069 33.1431 17.8264V8.84891L36.7184 20.282H40.7063L44.2815 8.84891V17.8264C44.2815 18.9069 43.3975 19.7909 42.3171 19.7909V20.282H50.1749V19.7909C49.0748 19.7909 48.2104 18.9069 48.2104 17.8264V7.02197C48.2104 5.94152 49.0748 5.05752 50.1749 5.05752V4.56641Z" fill="white"/>
</svg>
